<svg id="Calque_1" data-name="Calque 1" xmlns="http://www.w3.org/2000/svg" viewBox="0 0 396.79 231.92"><defs><style>.cls-1{fill:#020202;fill-rule:evenodd;}</style></defs><title>Blackmarket-logo-right</title><path class="cls-1" d="M40.9,22c-5.39,1.57-8.6,32.21-8.61,32.17C29.86,56.22,29,63,27,69.07a46.27,46.27,0,0,0-1.19,10.8,4.9,4.9,0,0,0-2.4-.48c-3,.27-2.75,8.94-3.11,8.4-1.25,0-3,8.28-2.87,9.12-1.41.43-1.2,3.6-1.2,3.6s-1,4.43-1.91,8.64c-.16,4.33-7.54,42.34-8.11,44.41-.45,2.68-1.84,13.84-1.66,16.8s.25,8.16.25,8.16l-1,.72-.47,6,1,.72-.24,1.2-1.2.72s-1.2,11-1.19,11S.78,212.86.78,212.86s-.64,5.36,0,6.48,2.86,1.92,4.56,2.64c3.57,1.52,37.82,6,48.25,5.95,10.92.57,68.27,3.59,123.36,4.19s127.41-.3,186.7-21.32c22-8.71,26.58-10.15,31.9-20,2.22-7.67,1.67-11.52,1.67-11.52l-2.65-4.8-1.2-.24-.48-1v-1.2s-4.35-5.41-4.33-5.52c-1.2,1-3.39-5.73-7.69-10.55a30.48,30.48,0,0,0-10.57-7.19l-5.52-3.11h-7.68l-42.24-1.64-34.08-3.56-3.84-1.2-.24-2.88-3.6-3.84-8.89-5.51-3.12,2.16-5.28-1.67L253.65,125l-10.08-3.83V119l-8.89-7-1.2,1-7.2-1-1.68.24.24-1.44L221,109.19l-2.16-3.36-8.16-4.31-3.84-3.36L202,91l-6.72-3.35-.48-1.44s-1.63-10.53-6-13.67-11.52-3.35-11.52-3.35l-4.08-4.32L169.81,52.6l-3.36-2.88-1-3.12-3.36-1.92-.48-1.44,1.44-2.16-4.33-10.56L156.34,19l-3.6-3.36-7.21-8.39L134,.32,129.92.8,127,3.2l-.48,1.44s-5-.5-39.83,8.92c-30.87,6.38-41.43,3.72-42,3.4s-2.16.72-2.16.72l-1.92,1.92A5.48,5.48,0,0,0,40.9,22Z" transform="translate(-0.5 -0.32)"/></svg>